ply
format ascii 1.0
element vertex 16
property float x
property float y
property float z
property uchar diffuse_red
property uchar diffuse_green
property uchar diffuse_blue
end_header
-1 -1 -1 255 0 255
0.997208 -0.0632923 -0.0396143 255 0 255
2.08902 -0.828008 0.0336557 255 0 255
2.51681 -1.21138 0.579668 255 0 255
2.95984 -1.90954 0.795959 0 255 0
3.18385 -2.82424 1.41427 255 0 255
2.77799 -3.51592 2.56352 255 0 255
1.67433 -4.18906 3.19297 255 0 255
0.624563 -4.48785 3.08717 255 0 255
-0.0986148 -4.26511 3.28212 255 0 255
-1.20364 -3.66967 2.88695 255 0 255
-1.80545 -3.07535 2.52132 255 0 255
-1.67233 -2.24342 1.97126 255 0 255
-2.03053 -1.94101 1.21978 255 0 255
-1.65308 -1.13438 0.464439 255 0 255
-0.792097 -0.681129 -0.0625709 255 0 255
