ply
format ascii 1.0
element vertex 16
property float x
property float y
property float z
property uchar diffuse_red
property uchar diffuse_green
property uchar diffuse_blue
end_header
-1 -1 -1 255 0 255
0.997513 -0.0610324 -0.0352396 255 0 255
2.08501 -0.811704 0.0440014 255 0 255
2.50998 -1.19086 0.59285 255 0 255
2.94938 -1.87362 0.803481 255 0 255
3.17579 -2.77301 1.40606 255 0 255
2.77587 -3.46205 2.5382 255 0 255
1.69017 -4.14037 3.15241 0 255 0
0.649073 -4.44158 3.04273 255 0 255
-0.0782884 -4.21812 3.24411 255 0 255
-1.17366 -3.62509 2.86359 255 0 255
-1.77003 -3.03433 2.51233 255 0 255
-1.64125 -2.20874 1.97699 255 0 255
-1.99828 -1.90602 1.24351 255 0 255
-1.63327 -1.10799 0.505426 255 0 255
-0.770068 3.85635 4.63819 0 255 0
