ply
format ascii 1.0
element vertex 16
property float x
property float y
property float z
property uchar diffuse_red
property uchar diffuse_green
property uchar diffuse_blue
end_header
-1 -1 -1 255 0 255
0.997409 -0.0621597 -0.036208 255 0 255
2.07322 -0.814174 0.0417681 255 0 255
2.503 -1.18992 0.591457 255 0 255
2.9401 -1.87148 0.804299 255 0 255
3.16426 -2.76339 1.40479 255 0 255
2.7661 -3.45276 2.52737 255 0 255
1.67444 -4.12988 3.14524 255 0 255
0.634503 -4.42464 3.04403 255 0 255
-0.091363 -4.19227 3.25505 255 0 255
-1.17336 -3.60058 2.87993 255 0 255
-1.76682 -3.01372 2.52873 255 0 255
-1.63618 -2.19993 1.9934 255 0 255
-1.99226 -1.90403 1.26055 255 0 255
-1.5818 3.31212 5.05424 0 255 0
-0.785971 -0.672266 -0.00297242 255 0 255
